HIERARCHY
ROOT hip
{
  OFFSET 0.0 0.0 0.0
  CHANNELS 6 Xposition Yposition Zposition Zrotation Yrotation Xrotation
  JOINT torso
  {
    OFFSET 0.0 0.0 0.0
    CHANNELS 3 Zrotation Xrotation Yrotation
    JOINT neck
    {
      OFFSET -31.42098999999993 328.8025209999999 74.3554680000002
      CHANNELS 3 Zrotation Xrotation Yrotation
      JOINT head
      {
        OFFSET 3.3519900000001144 303.81732099999994 206.53942900000015
        CHANNELS 3 Zrotation Xrotation Yrotation
        End Site
        {
          OFFSET 0.0 0.0 0.0
        }
      }
    }
    JOINT left_collar
    {
      OFFSET -31.42098999999993 328.8025209999999 74.3554680000002
      CHANNELS 3 Zrotation Xrotation Yrotation
      JOINT left_upper_arm
      {
        OFFSET -124.490479 -8.162841999999841 8.226441000000023
        CHANNELS 3 Zrotation Xrotation Yrotation
        JOINT left_forearm
        {
          OFFSET -253.595764 -1.5758060000000569 105.0729980000001
          CHANNELS 3 Zrotation Xrotation Yrotation
          JOINT left_hand
          {
            OFFSET -269.48803699999996 0.1478270000000066 -55.346191999999974
            CHANNELS 3 Zrotation Xrotation Yrotation
            End Site
            {
              OFFSET 0.0 0.0 0.0
            }
          }
        }
      }
    }
    JOINT right_collar
    {
      OFFSET -31.42098999999993 328.8025209999999 74.3554680000002
      CHANNELS 3 Zrotation Xrotation Yrotation
      JOINT right_upper_arm
      {
        OFFSET 162.02484099999998 0.46441600000002836 2.2303470000001653
        CHANNELS 3 Zrotation Xrotation Yrotation
        JOINT right_forearm
        {
          OFFSET 240.01246700000004 -25.835875999999985 121.34179699999959
          CHANNELS 3 Zrotation Xrotation Yrotation
          JOINT right_hand
          {
            OFFSET 252.48539699999992 18.910399999999868 -67.53466800000001
            CHANNELS 3 Zrotation Xrotation Yrotation
            End Site
            {
              OFFSET 0.0 0.0 0.0
            }
          }
        }
      }
    }
  }
}
MOTION
Frames: 6
Frame Time: 0.01
-231.1281080388904 268.13128996985114 1389.4583344444027 2.282185004664214 -3.9220030862389383 -2.6222775200181934 -0.4393845042838959 3.463028172938121 0.41982902744409817 -2.3016872103148174 -0.8874031778920939 1.584456958893958 0.0 0.0 0.0 0.5060804728638347 0.21880223296670695 -2.6423757079793586 52.52374521774628 7.747809384195321 29.093468588260276 35.457315961942335 -4.385233508933608 -9.566430872535038 0.0 0.0 0.0 -0.06021569097218128 -0.011089824556936181 5.085402479902344 -48.116995941569726 5.778323608101324 -34.0836661852653 -48.75631639711375 -5.5115045601187 20.702505171803185 0.0 0.0 0.0
-231.17459022252677 268.0980712015019 1389.4161559988027 2.325228716753686 -3.963058729088957 -2.555744754305291 -0.46754624817879714 3.4833843089006575 0.4272653742592906 -2.286260181616761 -0.8692681696838421 1.5735080118414435 0.0 0.0 0.0 0.4866387994489804 0.22127369373058456 -2.7024278095433845 52.53157083017936 7.753489776095957 29.0849623954991 35.449870147364386 -4.382344406267441 -9.572338792220442 0.0 0.0 0.0 -0.07011934511343566 -0.010360292024610675 5.017723364559115 -48.124359044469585 5.784769108901441 -34.07523458419558 -48.75659912129777 -5.514070868187462 20.695682799340386 0.0 0.0 0.0
-231.22172698974506 268.0651333358149 1389.37254187567 2.3682276713912827 -4.003999014461719 -2.4891959027636124 -0.495741570636665 3.5037292863675615 0.43469748111245204 -2.2708100433657363 -0.8515053317436289 1.5625538222569844 0.0 0.0 0.0 0.46730745508549715 0.2237153271130076 -2.762199595179537 52.53928187310964 7.7592158662442205 29.07633009409102 35.44258839708706 -4.379491193124965 -9.578205236355391 0.0 0.0 0.0 -0.07999431382775957 -0.009644496075112363 4.950206508272851 -48.131693088079864 5.791265433979534 -34.066705775998834 -48.75783528284314 -5.516714948361698 20.68888302268093 0.0 0.0 0.0
-231.26980297967884 268.0325660070026 1389.326585451652 2.410937937027463 -4.044615229823199 -2.422765797521133 -0.5238368684820283 3.5239195257213742 0.4420858240275056 -2.2554138490088227 -0.8343369042527073 1.5516517950732396 0.0 0.0 0.0 0.4482268407199479 0.22610737878637804 -2.8212204089913806 52.54685372322922 7.76496723500262 29.06760343478415 35.43549644008024 -4.376689215316651 -9.583993039224971 0.0 0.0 0.0 -0.08976346192999018 -0.008947799302495866 4.88338026407772 -48.138944565066296 5.797691774677069 -34.05827040381949 -48.76001429820153 -5.51937268909208 20.682275922483424 0.0 0.0 0.0
-231.31911597688483 268.0004410923788 1389.277334160433 2.453106268115578 -4.084710329990434 -2.356560912548565 -0.5516873055869804 3.5438131371042183 0.4493890598706958 -2.2401503207153226 -0.8179780286158648 1.5408602399030351 0.0 0.0 0.0 0.4295332704299596 0.2284308345177149 -2.8790271213521725 52.55426681948859 7.770720439205885 29.058821813530653 35.428614535591976 -4.37395161326016 -9.589669588973951 0.0 0.0 0.0 -0.09934876652865625 -0.008275253622898686 4.817772277017778 -48.14606149040993 5.803931705217829 -34.0501118605043 -48.763088755769566 -5.521981426310108 20.676018681282397 0.0 0.0 0.0
-231.3699640818248 267.9688118193126 1389.2238168098547 2.4944693259192894 -4.124100907098293 -2.290661606373935 -0.5791349058068758 3.56327155589478 0.45656380663642576 -2.225099939419589 -0.8026319984118104 1.5302383363656744 0.0 0.0 0.0 0.41135725376992144 0.23066758406934154 -2.935169352443942 52.56150677539924 7.77644881116345 29.0500327051016 35.421957311825295 -4.371289155577599 -9.595207290360847 0.0 0.0 0.0 -0.10867211693570773 -0.0076315570916541285 4.753904295394497 -48.152993744915385 5.809876310771731 -34.04240096665453 -48.76697044028207 -5.524481676089041 20.67024990291867 0.0 0.0 0.0
